<?xml version="1.0" encoding="UTF-8"?>
<svg width="132" height="132" version="1.1" viewBox="0 0 132 132" xmlns="http://www.w3.org/2000/svg"><circle cx="65.98" cy="65.75" r="65.19" fill="#f5f5f5"/><g fill="none" stroke="#000" stroke-width="3"><path d="m65.99 56.59v37.99"/><path d="m54.95 82.73 11.18 11.18 11.18-11.18"/><path d="m59.12 37.92c-6.266 2.05e-4 -11.35 5.08-11.35 11.35 0 1.479 0.2411 3.788 0.1916 4.058-5.102 3.99e-4 -9.238 4.136-9.238 9.238 3.99e-4 5.102 4.136 9.238 9.238 9.238h35.62c5.312-6.72e-4 9.618-4.307 9.619-9.619-3e-3 -4.979-3.435-9.167-8.394-9.61 0.2942-6.191-4.185-10.36-8.465-10.49-2.579 0.0039-4.643 0.9934-6.464 2.489-2.156-4.106-6.025-6.651-10.76-6.653z" stroke-linejoin="round"/></g></svg>
